<?xml version="1.0" encoding="UTF-8" standalone="no"?>
<!-- Created with Inkscape (http://www.inkscape.org/) -->

<svg
   width="6.3499999mm"
   height="6.3500004mm"
   viewBox="0 0 6.3499999 6.3500004"
   version="1.1"
   id="svg1"
   xml:space="preserve"
   xmlns="http://www.w3.org/2000/svg"
   xmlns:svg="http://www.w3.org/2000/svg"><defs
     id="defs1" /><g
     id="layer1"
     transform="translate(-42.333337,-196.63837)"><g
       id="g1"><rect
         style="fill:none;stroke:none;stroke-width:0.3;stroke-linecap:butt;stroke-linejoin:round;stroke-dasharray:none"
         id="rect30"
         width="6.3499999"
         height="6.3499999"
         x="42.333336"
         y="196.63835" /><path
         id="path31"
         style="fill:#3c3c3c;fill-opacity:1;stroke-width:0.299998;stroke-linecap:round;stroke-linejoin:round"
         d="m 43.466081,199.22298 c -0.181578,0.50887 -1.339537,1.28029 -0.930693,2.07998 0.922129,1.80366 6.657761,-0.92289 5.94589,-2.77296 -0.304843,-0.79225 -1.597809,-0.44269 -2.191597,-0.62373 -1.670823,-0.50968 -2.575521,0.62144 -2.8236,1.31671 z m 0.889351,-0.8785 0.940511,0.0486 -0.243913,0.91002 -0.260966,-0.35812 c -0.425904,0.30944 -0.51924,0.90011 -0.209806,1.32602 0.154779,0.21311 0.380083,0.34359 0.620117,0.38189 l -0.04651,0.29404 c -0.316675,-0.0499 -0.614411,-0.22035 -0.817005,-0.4992 -0.404737,-0.55707 -0.280608,-1.3414 0.276469,-1.74614 z m 1.189075,0.13591 c 0.316708,0.0499 0.614395,0.22084 0.817004,0.49971 0.404737,0.55707 0.280607,1.34141 -0.276469,1.74615 l 0.258899,0.35708 -0.940511,-0.0486 0.243913,-0.91002 0.260966,0.35811 c 0.425904,-0.30944 0.519251,-0.9001 0.209806,-1.32601 -0.154777,-0.21311 -0.380085,-0.34359 -0.620117,-0.38189 z" /></g><rect
       style="fill:none;stroke:none;stroke-width:0.3;stroke-linecap:butt;stroke-linejoin:round;stroke-dasharray:none"
       id="rect83-2"
       width="6.3499999"
       height="6.3499999"
       x="42.333344"
       y="202.98836" /><g
       id="g33"
       transform="translate(0,31.749995)"><rect
         style="fill:none;stroke:none;stroke-width:0.3;stroke-linecap:butt;stroke-linejoin:round;stroke-dasharray:none"
         id="rect33"
         width="6.3499999"
         height="6.3499999"
         x="42.333336"
         y="171.23836" /><path
         id="path33"
         style="opacity:1;fill:#df382c;fill-opacity:1;stroke-width:0.299998;stroke-linecap:round;stroke-linejoin:round"
         d="m 43.466081,173.82298 c -0.181578,0.50887 -1.339537,1.28029 -0.930693,2.07998 0.922129,1.80366 6.657761,-0.92289 5.94589,-2.77296 -0.304843,-0.79225 -1.597809,-0.44269 -2.191597,-0.62373 -1.670823,-0.50968 -2.575521,0.62144 -2.8236,1.31671 z m 1.5906,-0.90589 h 0.704867 l -0.117306,1.73168 h -0.469738 z m 0.352434,2.0004 c 0.108609,0 0.195811,0.033 0.261482,0.0987 0.0682,0.0632 0.10232,0.14276 0.10232,0.23874 0,0.0934 -0.03412,0.17417 -0.10232,0.24237 -0.06567,0.0682 -0.152873,0.10232 -0.261482,0.10232 -0.106084,0 -0.193286,-0.0341 -0.261483,-0.10232 -0.0682,-0.0682 -0.10232,-0.14892 -0.10232,-0.24237 10e-7,-0.096 0.03412,-0.17559 0.10232,-0.23874 0.0682,-0.0657 0.155399,-0.0987 0.261483,-0.0987 z" /></g></g></svg>
